# xmcd
#
# Track frame offsets:
#	150
#	15974
#	35003
#	60721
#	83371
#	107203
#	128971
#	152420
#	174418
#	202084
#	231418
#
# Disc length: 3398 seconds
#
# Revision: 1
# Processed by: cddbd v1.5.2PL0 Copyright (c) Steve Scherf et al.
# Submitted via: audiograbber 1.83.01
#
DISCID=860d440b
DTITLE=Svante Sjøblom and Filip Jers - Live at the victopia
DYEAR=2016
DGENRE=Blues
TTITLE0=Burnt child
TTITLE1=Last fair deal gone down
TTITLE2=Come on in my kitchen
TTITLE3=Motherless children
TTITLE4=Blues 2001
TTITLE5=Hard time killing floor
TTITLE6=Hang me
TTITLE7=Illinois blues
TTITLE8=Sex fot under
TTITLE9=Dearest darling
TTITLE10=Hard times come again no more
EXTD=
EXTT0=
EXTT1=
EXTT2=
EXTT3=
EXTT4=
EXTT5=
EXTT6=
EXTT7=
EXTT8=
EXTT9=
EXTT10=
PLAYORDER=
